<svg xmlns="http://www.w3.org/2000/svg" width="51" height="50">
    <path d="M44 22v-3h7v3h-7zM38.985 9.893l4.95-4.949 2.121 2.121-4.949 4.95zM30.5 31A10.5 10.5 0 1141 20.5 10.5 10.5 0 0130.5 31zm0-18a7.5 7.5 0 107.5 7.5 7.5 7.5 0 00-7.5-7.5zM29 0h3v7h-3V0zM14.944 7.065l2.121-2.121 4.95 4.949-2.122 2.122zM17 22h-7v-3h7v3zm2.893 6.985l2.122 2.122-4.95 4.949-2.121-2.121zM32 34v7h-3v-7h3zm-18.622-9h4.417c.086.247.159.5.26.74a11.023 11.023 0 00-6.666 7.4A7 7 0 1010 47h23a5.986 5.986 0 002-11.633v-2.176a13.539 13.539 0 001.316-.522h.006l5.015 5.016A8.835 8.835 0 0142 41a9 9 0 01-9 9H10a9.994 9.994 0 01-.65-19.967A14.059 14.059 0 0113.378 25zm27.729 3.985l4.949 4.95-2.121 2.121-4.95-4.949z"/>
</svg>