<svg xmlns="http://www.w3.org/2000/svg" width="53" height="42.969">
    <path d="M44.373 30.16a11.943 11.943 0 00-1.3-2.7 13.052 13.052 0 006.171-7.145A13.983 13.983 0 0131.261 4.323a13.036 13.036 0 00-6.717 7.942 16.573 16.573 0 00-3.017-.291A15.989 15.989 0 0136.5-.005 10.995 10.995 0 0052.935 14.58c.039.459.07.92.07 1.389a15.987 15.987 0 01-8.632 14.191zm-8.868-4.83A9 9 0 0133 42.969H10a9.994 9.994 0 01-.65-19.967 13.98 13.98 0 0126.155 2.328zm-24.116.778A7 7 0 1010 39.969h23a6 6 0 000-12h-.05a10.991 10.991 0 00-21.561-1.861z"/>
</svg>