<svg xmlns="http://www.w3.org/2000/svg" width="56" height="46">
    <path d="M49 22v-3h7v3h-7zM43.985 9.893l4.95-4.949 2.121 2.121-4.949 4.95zm-2.173 18.982a12.006 12.006 0 00-2.383-2 7.494 7.494 0 10-10.312-10.3 16.836 16.836 0 00-2.878-1.023 10.5 10.5 0 1115.573 13.323zM34 0h3v7h-3V0zM19.944 7.065l2.121-2.121 4.95 4.949-2.122 2.122zm15.561 21.3A9 9 0 0133 46H10a9.994 9.994 0 01-.65-19.967 13.98 13.98 0 0126.155 2.328zm-24.116.778A7 7 0 1010 43h23a6 6 0 000-12h-.05a10.991 10.991 0 00-21.561-1.861zm39.667 4.8l-2.121 2.121-4.95-4.949 2.122-2.122z"/>
</svg>