<svg xmlns="http://www.w3.org/2000/svg" width="47" height="45.969">
    <path d="M31 31.969a15.991 15.991 0 01-.5-31.974A10.995 10.995 0 0046.935 14.58c.039.459.07.92.07 1.389a16 16 0 01-16.005 16zm8-11a13.977 13.977 0 01-13.742-16.65 12.992 12.992 0 1017.983 15.992 13.984 13.984 0 01-4.241.658zm-29 8a7 7 0 000 14h23a6 6 0 006-6 5.9 5.9 0 00-1.036-3.335 18.759 18.759 0 002.7-1.329A8.907 8.907 0 0142 36.969a9 9 0 01-9 9H10a9.994 9.994 0 01-.65-19.967 14.085 14.085 0 013.456-4.57 18.779 18.779 0 001.2 3 11 11 0 00-2.617 4.68A7.059 7.059 0 0010 28.969z"/>
</svg>