<svg xmlns="http://www.w3.org/2000/svg" width="32.75" height="32.75" preserveAspectRatio="none">
    <path d="M14.915 25.666h3.36v-14.16h-2.36c-.04.227-.116.47-.229.73s-.291.5-.53.72c-.24.22-.563.403-.97.55-.407.147-.931.22-1.57.22h-.42v2.12h2.72l-.001 9.82z"/>
    <!-- <path d="M21.346 17.016a25.08 25.08 0 00-1.261 2.91c-.366 1.014-.673 2.021-.92 3.021s-.397 1.906-.45 2.72h3.48c.039-.786.16-1.667.359-2.64.199-.975.467-1.971.801-2.99a28.723 28.723 0 011.18-3.021 20.05 20.05 0 011.5-2.729v-2.5h-9.02v2.84h5.799a15.94 15.94 0 00-1.468 2.389z"/> -->
    <path d="M29.375 1.25h-1.123c.029-.093.059-.186.059-.289a.963.963 0 00-1.924 0c0 .104.028.196.059.289h-3.68c.029-.093.059-.186.059-.289a.963.963 0 00-1.925 0c0 .104.029.196.06.289h-3.681c.029-.093.058-.186.058-.289a.961.961 0 00-1.922 0c0 .104.028.196.058.289h-3.681c.029-.093.059-.186.059-.289a.962.962 0 00-1.923 0c0 .104.028.196.058.289h-3.68a.93.93 0 00.059-.289.961.961 0 00-1.923 0c0 .104.028.196.058.289H3.375A2.752 2.752 0 00.625 4v26a2.751 2.751 0 002.75 2.75H26.27l5.855-5.855V4a2.752 2.752 0 00-2.75-2.75zm1.25 25.023l-.311.311h-2.355c-1.102 0-2 .898-2 2v2.355l-.311.311H3.375c-.689 0-1.25-.561-1.25-1.25V9h28.5v17.273zm0-19.065c0 .55-.45 1-1 1h-26.5c-.55 0-1-.45-1-1v-4c0-.55.45-1 1-1h26.5c.55 0 1 .45 1 1v4z"/>
</svg>