<svg height="512" viewBox="0 0 24 24" width="512" preserveAspectRatio="none"
    xmlns="http://www.w3.org/2000/svg">
    <path d="M21.5 23h-19A2.503 2.503 0 010 20.5v-17C0 2.122 1.122 1 2.5 1h19C22.878 1 24 2.122 24 3.5v17c0 1.378-1.122 2.5-2.5 2.5zM2.5 2C1.673 2 1 2.673 1 3.5v17c0 .827.673 1.5 1.5 1.5h19c.827 0 1.5-.673 1.5-1.5v-17c0-.827-.673-1.5-1.5-1.5z"/>
    <path d="M23.5 6H.5a.5.5 0 010-1h23a.5.5 0 010 1zM12 17c-1.378 0-2.5-1.122-2.5-2.5S10.622 12 12 12s2.5 1.122 2.5 2.5S13.378 17 12 17zm0-4c-.827 0-1.5.673-1.5 1.5S11.173 16 12 16s1.5-.673 1.5-1.5S12.827 13 12 13z"/>
    <path d="M12.797 21h-1.595a.996.996 0 01-.995-.901l-.127-1.271a4.696 4.696 0 01-.865-.503l-1.168.527a.995.995 0 01-1.277-.412l-.798-1.38a.998.998 0 01.282-1.312l1.029-.74a3.966 3.966 0 01.001-1.015l-1.029-.74a.998.998 0 01-.282-1.312l.797-1.381a.996.996 0 011.277-.412l1.168.527c.273-.2.562-.368.865-.503l.128-1.272a.996.996 0 01.995-.9h1.595c.516 0 .944.387.995.901l.127 1.271c.304.135.593.304.865.503l1.168-.527a.996.996 0 011.277.412l.797 1.381a.998.998 0 01-.282 1.312l-1.029.74c.02.155.034.327.034.507s-.014.353-.034.507l1.029.74c.418.301.54.865.282 1.312l-.797 1.381a.996.996 0 01-1.277.412l-1.168-.527c-.273.2-.562.368-.865.503l-.128 1.272a.996.996 0 01-.995.9zm-3.512-3.755a.5.5 0 01.321.117c.339.284.714.501 1.113.647a.5.5 0 01.326.42L11.203 20h1.595l.157-1.571a.5.5 0 01.326-.42 3.745 3.745 0 001.113-.647.502.502 0 01.526-.072l1.444.652.797-1.381-1.278-.918a.503.503 0 01-.201-.493c.037-.211.067-.426.067-.648s-.03-.437-.067-.648a.502.502 0 01.201-.493l1.278-.918-.797-1.381-1.444.651a.499.499 0 01-.527-.072 3.687 3.687 0 00-1.113-.647.5.5 0 01-.326-.42L12.797 9h-1.595l-.157 1.571a.5.5 0 01-.326.42 3.745 3.745 0 00-1.113.647.497.497 0 01-.526.072l-1.444-.652-.798 1.382 1.278.918a.503.503 0 01.201.493c-.037.212-.067.426-.067.649s.03.437.067.648a.502.502 0 01-.201.493l-1.278.919.797 1.381 1.444-.651a.485.485 0 01.206-.045z"/>
</svg>