<svg xmlns="http://www.w3.org/2000/svg" width="52" height="47">
    <path d="M47 33.651v-3.762a6.937 6.937 0 00-6.107-11.777A13.5 13.5 0 1014 16.5v.089a8 8 0 00-9.138 12.544l-2.121 2.121A10.987 10.987 0 0111 13c.127 0 .25.015.375.019a16.49 16.49 0 0132.559 2.172A9.992 9.992 0 0147 33.651zM8 30l2-2 5 5h2v-2l-5-5 2-2 3 4v-6h3v6l3-4 2 2-5 5v2h2l5-5 2 2-4 3h6v3h-6l4 3-2 2-5-5h-2v2l5 5-2 2-3-4v6h-3v-6l-3 4-2-2 5-5v-2h-2l-5 5-2-2 4-3H6v-3h6zm29 2h-3v-6h3v6zm0 9h-3v-6h3v6zm7-6h-3v-6h3v6zm0 9h-3v-6h3v6z"/>
</svg>