<svg xmlns="http://www.w3.org/2000/svg" width="52" height="47">
    <path d="M47.146 33.563L49 28v-2h-.1a6.858 6.858 0 00.1-1 6.864 6.864 0 00-8.105-6.888A13.5 13.5 0 1014 16.5v.089a8 8 0 00-8.662 13.068l-2.121 2.121A11 11 0 0111 13c.127 0 .25.015.375.019a16.49 16.49 0 0132.559 2.172 9.99 9.99 0 013.212 18.372zM8 30l2-2 5 5h2v-2l-5-5 2-2 3 4v-6h3v6l3-4 2 2-5 5v2h2l5-5 2 2-4 3h6v3h-6l4 3-2 2-5-5h-2v2l5 5-2 2-3-4v6h-3v-6l-3 4-2-2 5-5v-2h-2l-5 5-2-2 4-3H6v-3h6zm32-5l-5 15h-3l5-15h3zm6 3l-5 15h-3l5-15h3z"/>
</svg>