<svg viewBox="0 0 1440 320" preserveAspectRatio="xMinYMin meet">
    <path fill="#0099ff" d="M0,64 L6.3,53.3 C12.6,43,25,21,38,26.7C50.5,32,63,64,76,85.3C88.4,107,101,117,114,101.3C126.3,85,139,43,152,48C164.2,53,177,107,189,144C202.1,181,215,203,227,224C240,245,253,267,265,250.7C277.9,235,291,181,303,170.7C315.8,160,328,192,341,208C353.7,224,366,224,379,224C391.6,224,404,224,417,213.3C429.5,203,442,181,455,170.7C467.4,160,480,160,493,165.3C505.3,171,518,181,531,170.7C543.2,160,556,128,568,122.7C581.1,117,594,139,606,165.3C618.9,192,632,224,644,224C656.8,224,669,192,682,154.7C694.7,117,707,75,720,64C732.6,53,745,75,758,96C770.5,117,783,139,796,138.7C808.4,139,821,117,834,138.7C846.3,160,859,224,872,213.3C884.2,203,897,117,909,106.7C922.1,96,935,160,947,176C960,192,973,160,985,133.3C997.9,107,1011,85,1023,112C1035.8,139,1048,213,1061,218.7C1073.7,224,1086,160,1099,117.3C1111.6,75,1124,53,1137,48C1149.5,43,1162,53,1175,69.3C1187.4,85,1200,107,1213,106.7C1225.3,107,1238,85,1251,69.3C1263.2,53,1276,43,1288,42.7C1301.1,43,1314,53,1326,80 C1338.9,107,1352,149,1364,165.3 C1376.8,181 1389,171 1402,149.3 C1414.7,128 1427,96 1434,80 L1440,64 L1440,320 L1433.7,320 C1427.4,320 1415,320 1402,320 L0,320 Z"></path>
</svg>
