<svg xmlns="http://www.w3.org/2000/svg" width="44" height="45">
    <path d="M32.5 45A11.5 11.5 0 1144 33.5 11.5 11.5 0 0132.5 45zm0-20a8.5 8.5 0 108.5 8.5 8.5 8.5 0 00-8.5-8.5zM31 36h3v3h-3v-3zm0-8h3v7h-3v-7zm3-18H12a2.938 2.938 0 01-3-3h28a2.938 2.938 0 01-3 3zm-3-7H3a2.938 2.938 0 01-3-3h34a2.938 2.938 0 01-3 3zM7 14h26a2.938 2.938 0 01-3 3H10a2.938 2.938 0 01-3-3zm14 10H7a2.938 2.938 0 01-3-3h20a2.938 2.938 0 01-3 3zm-5 7h-5a2.938 2.938 0 01-3-3h11a2.938 2.938 0 01-3 3zm0 7a2.938 2.938 0 01-3-3h6a2.938 2.938 0 01-3 3z"/>
</svg>