<svg version="1.0" xmlns="http://www.w3.org/2000/svg" width="1168" height="1168" viewBox="0 0 876 876"><path d="M266.9 36.9c-17.4 17.5-20.1 20.7-23.4 27.5-2.1 4.2-4.1 9.4-4.4 11.4-.7 5.3-.5 17.2.3 20.7.4 1.6.8 3.5.9 4.1.8 3.7 7.4 14.5 11 18.1 6.2 6.3 7.4 7.3 8.6 7.3.6 0 1.1.4 1.1.8s1.5 1.4 3.3 2.1c6.5 2.8 9.7 3.9 9.7 3.4 0-.3.6 0 1.4.6.9.8 4.9 1.2 10.3 1.2 9.3 0 11.8-.3 12.9-1.4.4-.4 1.7-.7 2.9-.7 1.1 0 2.6-.5 3.3-1.2.7-.7 1.2-.9 1.2-.5s1.8-.4 4-1.8 4.2-2.5 4.6-2.5c.3 0 2.9-2.4 5.8-5.3 4.7-4.6 11.3-14.5 12-17.9.2-.7.6-2 .9-2.8 1.2-3.2 2.3-10.7 2.1-15.5-.2-4.6-.4-6.3-1.8-12-.4-1.9-3.3-8.3-6.2-13.6-1.2-2.2-34.9-36.9-39.5-40.6-1.2-1-4.9 2.3-21 18.6zM569.8 36.4c-20.3 20.3-23.8 25.1-27.2 36.4-1.4 4.8-1.6 17.7-.4 24.8 1 5.5 7.4 16.2 13.2 21.9 10.6 10.4 21.2 14.6 35.5 14.1 7.4-.3 11.9-.9 12.9-1.6.1-.2.5-.3 1-.4.4-.1 2.4-1 4.6-1.9 2.1-.9 4-1.7 4.2-1.7.8 0 5.2-3.8 10.5-9 9.1-9.1 13.8-21.3 13.4-34.7-.3-7.4-.5-8.7-2.9-15.8-2.7-7.7-7-13-26.7-32.8l-18.7-18.8-19.4 19.5zM389.4 112.2c-25.9 26-48.6 49.3-50.5 51.8-1.8 2.5-3.6 4.7-3.9 5-4 3.8-16.7 30.9-18.4 39.2-.3 1.6-.8 4-1.1 5.5-.3 1.6-.8 3.4-1 4.1-1.7 4.8-2.5 29.4-1.2 38.2.4 2.5.9 5.9 1.1 7.7 1.1 7.3 5.1 19.8 9.4 29.3 2.3 5.2 8.9 16.9 10.1 18 .3.3 2.1 2.6 3.8 5.1 4.9 7 15.9 18 24.3 24.3 4.1 3.1 8.1 6.1 8.8 6.6.6.6 1.2.7 1.2.3 0-.4.4-.4.8.2 2.7 3.7 29.1 14.1 40.6 15.9 1.9.3 4.1.7 4.8.8.9.2 1.2-6.9 1.3-32.2.1-17.9-.1-33-.3-33.7-.2-.6-3.3-2.6-6.8-4.3-3.5-1.7-6.4-3.5-6.4-4 0-.6-.5-1-1.1-1-3.1 0-14-13.7-17.1-21.5-3.6-8.9-4.2-11.8-4.1-21.5.1-10.6 1-14.2 5.5-23.6 10.2-21.6 35.3-33.7 58.8-28.7 3.6.8 7.1 1.5 7.8 1.7.7.1 1.8.8 2.4 1.4.7.7 2 1.2 2.9 1.2.9 0 2.2.7 2.9 1.5.7.8 1.8 1.5 2.6 1.5.7 0 4.4 3.1 8.1 6.8 10.6 10.6 16.3 23.7 16.4 38 .1 15.1-5.8 29.3-16.6 39.5-4.1 4-13.4 10-17.2 11.1l-2.2.7v67.1l4.2-.6c5.1-.6 6.4-1 14.7-3.4 25.8-7.8 49.3-24.7 64.8-46.5 2-2.9 4.1-5.5 4.7-5.9.5-.4.6-.8.2-.8-.4 0 .6-2 2.3-4.5 1.7-2.5 2.8-4.5 2.4-4.5-.4 0 0-.8.9-1.8.8-.9 1.5-1.9 1.5-2.2-.1-.3.9-2.7 2-5.4 1.2-2.7 2.2-5.4 2.2-6.1 0-.6.3-1.5.7-1.9.4-.3.8-1.2.9-1.9.1-.7 1.1-4.8 2.2-9.2 2-7.5 3.7-21.7 3.6-29.5-.1-4.9-1.3-19.1-1.9-21.5-3.8-16.8-10.6-34.2-16.6-42.6-1-1.5-1.9-3-1.9-3.3 0-.4-.4-1.2-1-1.9-.5-.7-3.1-3.9-5.7-7.2-5.2-6.5-96.6-98.5-98-98.5-.5 0-22 21.3-47.9 47.2zM126.8 139.7c-.6 1.1-.1 84.4.5 86.8.3 1.1.8 3.3 1.2 5 1.1 5.1 4.7 14.6 6.5 17.5.6.8 1.4 2.5 1.9 3.6 1 2.2 9 12.3 12.6 15.9 3.9 3.9 13 10.3 19.2 13.4 16.4 8.2 37.7 9.8 54.9 4.2 8.9-2.9 12.4-4.5 12.4-5.3 0-.4.7-.8 1.4-.8 3.6 0 24.6-18.5 24.6-21.8 0-.6.4-1.2 1-1.2 1.3 0 9.5-17.4 10.9-23.2 3.6-15.1 3.2-29-1.2-42.8-1.8-5.7-5.8-14.4-6.9-14.8-.4-.2-.8-.8-.8-1.4 0-1.5-5.7-8.6-11.5-14.3-4.8-4.8-16.7-13.5-18.3-13.5-.5 0-2.7-.9-5-2-2.2-1.1-4.9-2.1-5.9-2.3-1-.1-2.3-.6-2.9-1-.7-.4-3.1-1-5.5-1.3-6.5-1-88.7-1.6-89.1-.7zM660 140.5c-3 .7-5.7 1.4-6 1.4-3 .6-17.9 6.9-19 8.1-.3.3-2.4 1.8-4.7 3.3-10.9 7.5-21.1 20.6-26.4 34.2-5.3 13.6-6.2 32.2-2.3 46.3 2.3 8.5 9 23.2 10.5 23.2.5 0 .9.6.9 1.3 0 2 12.4 14.2 18.8 18.6 5 3.4 10 6 17.7 9.1 1.8.8 5.6 1.8 9.5 2.6 2.4.5 12.2 1.5 15.5 1.5 22 .3 46.1-11.7 59.4-29.6 4.1-5.4 10.4-16.5 9.4-16.5-.3 0-.1-.6.5-1.3 1.1-1.3 3.8-10.4 4.8-16.2.7-3.7 1.2-84.5.6-86.3-.6-1.8-81.2-1.5-89.2.3zM63.1 253.3c-3.5.4-9.8 2.2-14 3.9-7.2 3-8.6 4.2-28.4 23.7L-.1 301.4l18.8 18.8C29 330.6 39.1 340 41 341.2c1.9 1.2 3.7 2.4 4 2.7.7.8 6.6 3.1 12 4.6 9.4 2.7 30.3.2 33.2-3.9.4-.6.8-.7.8-.3 0 .4 2-.6 4.4-2.2 16.8-11.6 24.3-28.9 21.2-49.1-2.7-18.3-18.5-34.8-37.1-38.8-8-1.7-9.6-1.8-16.4-.9zM802.4 253.2c-11.4 1.2-22 6.1-29.3 13.8-5.8 6.1-7.2 8-9.9 13.9-12.8 27.8 2.2 59.4 32 67.6 6.2 1.7 19.1 1.7 24-.1 2.1-.7 3.9-1.3 4.1-1.2.6.3 9.7-4.2 11.8-5.8 1.3-1.1 11.1-10.4 21.7-20.9l19.3-19-20.2-20.1c-17.2-17.1-21.2-20.5-26.9-23.3-3.7-1.7-8-3.4-9.6-3.7-1.6-.3-4.5-.8-6.4-1.2-1.9-.4-6.7-.4-10.6 0zM225.7 313.6c-.1.1-3.3.5-7.2.9-3.8.4-7.3.8-7.6 1.1-.3.2-2.1.6-4 .8-4.1.6-14.9 3.8-20.4 6-22.4 9.2-26.7 12.8-81.7 67.6L56 438.5l48.3 48c48.1 47.9 52.9 52.5 54.6 52.5.5 0 1.1.4 1.3.8.8 2 24.9 15.2 27.8 15.2.5 0 1.8.4 2.8 1 .9.5 4.9 1.8 8.7 2.9 18.7 5.3 39.9 6 58.5 2 2.9-.6 5.7-1.2 6.3-1.3.7-.2 1.9-.6 2.7-.9.8-.3 3.3-1.1 5.5-1.8 2.2-.6 6-2 8.5-3.1 2.4-1.1 5-2.1 5.7-2.2.8-.1 2.3-1 3.4-1.9 1-.9 2.6-1.7 3.4-1.7.8 0 1.5-.5 1.5-1 0-.6.5-1 1.1-1 .9 0 9.7-5.6 10.9-6.9.3-.4 2.1-1.8 4-3.2 17.7-13.2 36.2-40.7 41.6-61.9.2-.8.8-3.3 1.4-5.5.6-2.2 1.2-4.9 1.4-6.1.2-1.1.6-2.6.9-3.1 1.3-2.1-1.9-3-9.8-2.9-4.4.1-9-.2-10.2-.6-1.2-.4-2.4-.4-2.7 0-.6.9-18.3.8-19.2-.1-.4-.3-1.4-.3-2.3.2-.9.4-6.4.7-12.3.6l-10.7-.1-1.5 4c-2.2 5.7-9.7 15.3-15.3 19.8-4.8 3.8-14.3 9.3-14.3 8.3 0-.3-1 0-2.2.6-6 3.2-19.6 3.8-31.2 1.4-3.6-.7-14-5.5-14.4-6.7-.2-.4-.9-.8-1.6-.8-1.2 0-13.6-11.4-13.6-12.5 0-.3-1.2-2.3-2.6-4.4-4.4-6.7-7.5-17.6-7.6-26.6-.2-22.7 12.2-41.6 33.5-50.9 3.1-1.4 6.1-2.5 6.5-2.5.4.1.9 0 1.2-.1 4.6-1.8 19.8-1.5 26.7.5 15.3 4.4 28.3 15.6 35 30l1.8 4H323c29.3 0 33.5-.2 33.1-1.5-.2-.8-.5-2.9-.8-4.5-.3-1.7-.6-3.5-.8-4-9.8-42.5-40.3-76.1-82.3-90.6-5.7-2-23.1-5.8-26.8-5.8-1-.1-5.8-.2-10.7-.4-4.8-.2-8.8-.2-9-.1zM634.8 313.5c-.2.2-2.7.5-5.6.9-12.1 1.4-25.3 4.8-33.8 8.6-10.7 4.8-21.1 10.4-22.4 11.9-.3.3-3.2 2.6-6.4 5-8.3 6.2-18.6 16.8-25 26-5.5 7.8-14.6 24.8-14.6 27.4 0 .7-.4 1.7-.8 2.2-2 2.3-6.7 21.6-5.9 23.9.4 1 7.3 1.3 33.3 1.2l32.8-.1 3.3-6.5c2.7-5.5 10.3-14.6 15.4-18.5 2.7-2.1 12.9-7.6 14.6-7.9 1-.2 3.7-.9 6.1-1.6 5.6-1.4 17.5-1.4 23.8.1 13.5 3.2 27.7 13.6 34.3 25.2 3.3 6 6.2 13.9 6.6 18.2.2 1.6.4 3.2.5 3.5.5 1.3.2 11.2-.4 14.6-2.9 15.7-11.8 28.8-25.4 37.1-2.1 1.3-4.4 2.6-5.2 2.9-.8.3-2.4 1-3.5 1.5-8.2 3.7-28.2 4.3-34.4 1-1.1-.7-2.1-.9-2.1-.6 0 .3-3.2-1-7-3.1-9.3-4.8-17.8-13.2-22.9-22.6l-4.2-7.6-12.4.2c-7.5 0-12.7-.3-12.9-.9-.3-.6-.5-.5-.5.1-.1 1.1-4.9 1-7.8-.1-.7-.2-1.4-.1-1.7.3-.5.9-15.8.8-17.3-.1-.7-.4-1.4-.4-1.6 0-.3.5-3 .7-6.1.7-5.4-.2-6.3.3-5.6 3.1.1.5.9 3.7 1.6 7 1.8 7.8 1.8 7.8 2.7 9.2.5.7.6 1.3.3 1.3-.7 0 2.8 8.9 6.7 17 3.2 6.6 11.3 19.2 15.7 24.4 5.3 6.3 17.4 17.6 22.8 21.2 3.1 2.2 5.9 4.2 6 4.6.2.5.8.8 1.2.8.5 0 3.1 1.3 5.9 2.9 2.7 1.6 5.2 2.7 5.5 2.4.3-.4.6-.2.6.3 0 .8 4.7 3.1 8 3.9.3.1 1.9.7 3.5 1.4 7.7 3 8.5 3.2 16 4.6 1.1.2 4.7.9 8 1.5 10.6 2.1 32 1.6 43-1 2.2-.5 4-.9 4-.9 0 .7 16.6-4.7 20-6.5 1.1-.6 2.2-1.1 2.5-1.1 2.9-.4 21.3-11.4 27.3-16.4 5.9-4.8 97.7-96.6 97.7-97.6 0-1.7-96-96.7-101-100-2.5-1.7-4.7-3.2-5-3.5-.8-.9-5.4-3.7-6.5-4-.5-.1-2.1-1-3.5-1.9-4.4-3-19.2-9.3-25.2-10.7-1.3-.3-3.9-.9-5.8-1.4-6.6-1.6-7.5-1.7-12.5-2.5-4.6-.7-24.2-1.4-24.7-1zM408.9 514.4c-23.8 6.3-42.9 16.9-58.6 32.5-10.8 10.8-11.8 11.9-17.5 20.6-5.8 8.9-11.9 21.9-14.9 31.5-2.7 8.8-2.3 7.4-3.3 13.3-.4 2.7-1 5.9-1.3 7-1.1 4.7-.8 27.6.4 34.7.8 4.1 1.5 8.6 1.7 10 .7 4.7 5.6 18.4 9.3 26 8.7 18.1 11.9 21.7 63.2 73.2 26.7 26.9 48.9 48.8 49.3 48.8 1.1 0 93.6-92.7 96.8-97 1.4-1.8 3-3.8 3.6-4.4 1.7-1.8 8.4-12.6 8.4-13.6 0-.6.4-1 .8-1s1.3-1.2 1.9-2.8c.6-1.5 2.5-6.1 4.3-10.2 3-7.1 5.8-16.1 6.4-20.5.2-1.1.6-2.9.9-4 .9-2.7 1.8-14.4 1.8-22.5 0-10-.6-16.1-2.6-26-2.9-14.3-9.8-30.5-19-44.5-1.1-1.7-2.2-3.2-2.5-3.5-.3-.3-2.3-2.8-4.5-5.5-7.9-9.8-25.9-25.5-29.4-25.5-.6 0-1.1-.4-1.1-.8 0-1-14.4-8.3-22-11.1-6.9-2.6-20.6-6.1-23.6-6.1h-2.3l.2 33.2.2 33.1 5.2 2.7c12.4 6.4 20.4 14.8 26 27 2.5 5.6 4.7 14.6 3.8 16-.3.5-.2 1 .3 1 .4 0 .7 2.1.5 4.7-.4 5.7-1.1 11.7-1.4 12-.1.2-.2.6-.3 1-1.2 5.3-5.8 15.2-8.6 18.7-4.6 5.6-13 12.8-17.9 15.4-6.4 3.4-16.6 6.6-18.1 5.7-.5-.3-1-.2-1 .2 0 1.2-12.3.8-18.7-.5-8.8-1.9-18.1-7.1-25.3-14.2-7.2-7.2-7.9-8.1-11.5-15.9-7.8-16.8-6.3-36.7 3.8-52.1 4.7-7.1 13.1-14.6 20.4-18.2l6.8-3.4V513.1l-3.6.2c-2 .1-5.2.6-7 1.1zM808.9 526.4c-.2.2-2.9.6-5.9.9-15.8 1.6-29.1 9.6-37.1 22.8-1.7 2.6-2.9 5-2.7 5.2.2.2-.2 1-.8 1.8-2 2.5-3.7 12.1-3.7 19.9.3 17.3 10.8 34 26.4 41.7 7.6 3.7 9 4.1 15.5 4.9 5.6.7 5.2.7 12.4 0 5.9-.5 16.1-3.9 18.4-6.1.7-.8 1.6-1.1 2-.8.3.3 10-8.8 21.6-20.3l21.1-20.8-20.3-20.2c-16-15.8-21.5-20.6-25.9-22.7-7.8-3.7-12.9-5.3-16.4-5.2-1.6 0-3.3-.3-3.6-.8-.3-.4-.7-.5-1-.3zM52.5 529.8c-3.8 1.4-7.2 2.8-7.5 3.1-.3.4-2.1 1.7-4 2.9s-11.9 10.6-22.3 20.9L0 575.5l20.2 19.9c11.2 10.9 21 20.4 21.9 21.1 3 2.3 14.6 6.4 20 7.1 3 .3 5.6.8 5.8 1 .2.2 1-.1 1.8-.7 1-.9 1.3-.8 1.3 0 0 .7.3 1 .8.8.4-.3 2.5-.8 4.7-1.1 9.6-1.5 18.9-6.2 25.9-13.2 10.2-10.2 14.8-20.8 14.7-34.4 0-8.7-.2-10.7-1.2-12.5-.4-.6-.9-2.4-1.3-4-1.6-6.6-13.2-22.5-16.4-22.5-.7 0-1.2-.4-1.2-.8 0-1.1-9.7-5.9-15.2-7.6-7.6-2.2-21.2-1.7-29.3 1.2zM193.7 587.6c-.1.1-1.5.4-3.2.7-16 2.6-32.1 10.8-42.4 21.6-5 5.3-12.1 15.1-12.1 16.7 0 .8-.4 1.4-.8 1.4-1.4 0-6.9 15.7-7.9 22.5-.3 2.2-.6 22.8-.7 45.7l-.1 41.7 43-.4c23.6-.1 44.1-.5 45.5-.8 6-1.1 12.6-3 13.4-3.8.6-.5 1.6-.9 2.4-.9.8 0 2.7-.9 4.3-2.1 1.6-1.1 2.9-1.8 2.9-1.4 0 .9 11.2-7 14.4-10.1 12-11.8 19.1-24 23.4-40.4.2-.8.4-7.6.5-15 .1-15.4-.9-20.1-7.1-33.3-4-8.6-4.7-9.6-12-17.7-10.5-11.7-28.8-21.9-42.3-23.4-2.4-.2-4.4-.5-4.4-.6 0-.3-16.6-.6-16.8-.4zM667.7 587.6c-.1.1-2.1.4-4.5.8-8.5 1.1-24.1 6.7-25 8.8-.2.4-.8.8-1.4.8-2.6 0-21.8 16.5-21.8 18.8 0 .5-.8 1.7-1.7 2.8-2.2 2.4-4 5.2-5.2 7.9-1.9 4.1-4.1 9.5-4.2 10 0 .3-.6 2.2-1.4 4.4-4.2 12-3.5 34.7 1.6 46.6.7 1.6 1.3 3.2 1.4 3.5.3 1.2 4 8.5 4.5 9 .3.3 1.7 2.4 3.2 4.7 3.1 4.8 11.7 13.7 16.9 17.5 4.2 3.1 15.4 9.1 18.9 10.2 5 1.5 9.6 2.7 12 3.3 4.2.9 87.5 1.2 88 .3.6-1 .3-83.2-.3-86.5-1-5.6-6-20.5-6.9-20.5-.5 0-.8-.7-.8-1.5 0-.9-.5-2.1-1-2.8-.6-.7-2.4-3.2-4-5.7-4.2-6.5-13.1-15.5-19.6-19.8-5.1-3.4-18.7-9.2-24.9-10.7-5.7-1.4-22.8-2.7-23.8-1.9zM278.5 743.6c-27.8 4.5-45 30.8-38.8 59.2.9 4 2 7.2 2.5 7.2.4 0 .8.7.8 1.6 0 3.2 7 11.5 25.1 29.6l18.6 18.8 19.2-19.2c11.3-11.2 20.5-21.4 22.5-24.7 5.9-9.7 8.2-22.1 6.2-33.1-1.3-7.9-1.8-9.5-2.4-10-.4-.3-1.6-2.5-2.7-5-1.7-3.7-10.3-13.5-15.7-17.6-1.6-1.3-13.1-6-16.8-6.9-4.6-1.1-11.5-1.1-18.5.1zM580 743.6c-6.6 1.3-14.8 4.6-18.5 7.4-8.5 6.4-17.3 18.6-19 26.6-2.4 10.6-2.6 22.4-.5 25 .7.7 1 1.4.6 1.4-1 0 2.6 8.3 5.9 13.5 1.8 2.7 11.6 13.4 21.9 23.7l18.7 18.8 18.7-18.8c10.3-10.3 19.9-20.3 21.3-22.2 10-13.8 11.2-34.7 3.1-50.6-1.2-2.3-3-5.2-4.1-6.5-1.2-1.3-2.9-3.3-3.8-4.4-3.3-3.8-18.3-13.7-18.3-12.1 0 .3-1.9-.2-4.2-1-5.8-2-14.1-2.3-21.8-.8z"/></svg>