<?xml version="1.0" standalone="no"?>
<!DOCTYPE svg PUBLIC "-//W3C//DTD SVG 20010904//EN"
 "http://www.w3.org/TR/2001/REC-SVG-20010904/DTD/svg10.dtd">
<svg version="1.0" xmlns="http://www.w3.org/2000/svg"
 width="896.000000pt" height="896.000000pt" viewBox="0 0 896.000000 896.000000"
 preserveAspectRatio="xMidYMid meet">
<metadata>
Created by potrace 1.11, written by Peter Selinger 2001-2013
</metadata>
<g transform="translate(0.000000,896.000000) scale(0.100000,-0.100000)"
fill="#000000" stroke="none">
<path d="M5439 8128 c-1 -18 -1 -36 0 -40 2 -17 2 -68 -1 -121 -2 -31 -1 -57
2 -57 3 0 5 -29 5 -65 0 -36 -2 -65 -5 -65 -3 0 -4 -44 -3 -97 1 -54 2 -125 2
-158 1 -69 1 -124 3 -134 0 -3 0 -8 -1 -11 -5 -13 -5 -110 -1 -110 3 0 5 -29
5 -65 0 -36 -4 -65 -8 -65 -5 0 -6 -4 -3 -9 4 -5 7 -27 8 -49 1 -39 2 -40 40
-44 22 -2 42 0 44 4 3 4 10 5 17 2 19 -7 127 -10 127 -3 0 3 20 3 44 -1 24 -3
52 -5 62 -3 11 1 29 3 42 3 25 0 70 1 90 3 10 0 18 44 12 72 -2 11 -2 117 0
125 6 23 3 230 -3 230 -5 0 -5 4 -2 10 3 5 5 35 5 67 0 32 0 74 0 93 1 19 2
61 3 93 1 31 -2 57 -6 57 -5 0 -5 4 -2 10 3 5 6 33 5 62 -1 109 0 195 3 246
l2 52 -242 0 -243 0 -1 -32z"/>
<path d="M3358 7198 l-168 -169 396 -396 396 -395 170 170 170 169 -384 384
c-211 211 -390 389 -398 395 -12 8 -48 -23 -182 -158z"/>
<path d="M7435 6975 c-251 -251 -392 -399 -388 -407 3 -7 79 -84 168 -171
l163 -159 391 391 c215 215 391 395 391 400 0 5 -74 84 -165 175 l-165 166
-395 -395z"/>
<path d="M5534 6560 c-3 -2 -15 -5 -27 -6 -107 -7 -284 -47 -393 -90 -38 -14
-75 -26 -81 -27 -7 0 -13 -4 -13 -9 0 -4 -5 -8 -11 -8 -23 0 -190 -90 -271
-146 -140 -97 -253 -201 -354 -326 -61 -74 -164 -227 -176 -259 -5 -13 17 -23
115 -54 67 -21 124 -39 127 -40 6 -2 26 -10 105 -43 33 -13 70 -28 82 -33 19
-7 28 0 69 59 44 62 213 242 227 242 6 0 34 21 61 46 6 5 18 13 26 17 8 4 31
17 50 29 82 50 320 149 320 133 0 -2 10 -1 23 4 38 15 118 24 219 25 54 1 98
5 98 9 0 5 4 6 9 3 9 -6 54 -13 136 -21 44 -5 148 -30 180 -45 11 -5 31 -12
45 -15 51 -14 207 -98 280 -150 189 -137 327 -314 415 -535 35 -88 74 -240 78
-309 2 -20 6 -41 9 -47 4 -6 5 -14 2 -17 -3 -3 -7 -58 -9 -123 -3 -90 -11
-148 -34 -236 -36 -142 -117 -320 -186 -405 -5 -7 -21 -27 -35 -45 -50 -64
-167 -176 -238 -227 l-72 -53 71 -48 c76 -52 155 -118 253 -213 52 -50 61 -55
75 -43 9 7 29 24 45 37 37 30 182 174 217 215 32 38 137 187 161 229 54 93
148 308 148 337 0 8 5 19 12 26 7 7 9 12 5 12 -3 0 -2 11 3 25 5 14 12 36 14
48 3 12 10 45 16 72 11 51 13 67 25 190 9 84 12 197 7 208 -2 5 -6 39 -8 76
-3 56 -27 211 -38 246 -1 6 -6 24 -10 40 -4 17 -15 53 -24 80 -9 28 -17 52
-17 55 -7 25 -44 110 -85 193 -35 69 -143 244 -159 257 -3 3 -18 21 -32 40
-51 68 -204 217 -284 277 -81 60 -120 88 -125 88 -3 0 -23 12 -45 26 -124 80
-384 178 -535 203 -19 3 -48 8 -65 11 -16 4 -54 8 -85 10 -30 2 -57 5 -60 6
-13 4 -252 3 -256 -1z"/>
<path d="M3348 5275 c-1 -1 -37 -6 -78 -9 -41 -4 -84 -9 -94 -13 -10 -3 -33
-6 -50 -8 -17 -1 -38 -5 -46 -8 -8 -3 -49 -13 -90 -22 -41 -9 -104 -26 -140
-38 -36 -12 -67 -22 -70 -22 -32 -9 -261 -108 -266 -116 -3 -5 -14 -9 -25 -9
-10 0 -19 -4 -19 -8 0 -4 -26 -21 -57 -37 -32 -16 -82 -46 -113 -67 -30 -21
-63 -44 -74 -51 -186 -123 -437 -380 -557 -569 -19 -29 -37 -54 -41 -56 -5 -2
-8 -8 -8 -13 0 -5 -12 -28 -26 -50 -14 -23 -41 -73 -61 -111 -19 -38 -40 -71
-46 -73 -7 -2 -40 -6 -75 -10 -55 -5 -100 -12 -178 -29 -48 -10 -173 -50 -229
-73 -108 -44 -279 -137 -340 -185 -139 -109 -222 -189 -334 -325 -6 -6 -30
-42 -55 -80 -25 -37 -49 -72 -54 -78 -28 -34 -121 -250 -160 -375 -16 -52 -36
-149 -49 -240 -12 -85 -6 -455 7 -455 1 0 4 -16 6 -35 3 -19 7 -42 11 -50 3
-8 7 -22 8 -30 4 -28 26 -105 51 -175 24 -66 111 -254 123 -265 3 -3 14 -21
25 -40 10 -19 24 -39 30 -45 6 -5 29 -36 51 -69 76 -111 254 -278 410 -383
132 -89 381 -191 530 -217 17 -3 41 -8 55 -11 14 -3 48 -9 75 -13 66 -9 4017
-9 4075 1 75 12 135 24 135 27 0 1 9 3 20 4 57 8 199 61 300 112 62 32 192
110 205 124 3 3 34 29 70 59 144 120 273 282 359 450 55 108 113 278 127 369
3 20 7 43 9 50 23 68 23 360 0 472 -3 14 -8 39 -11 55 -8 47 -33 134 -56 195
-36 99 -133 291 -150 298 -5 2 -8 10 -8 17 0 7 -3 15 -7 17 -5 2 -28 30 -53
62 -55 73 -180 199 -244 246 -26 19 -52 40 -59 45 -7 6 -30 22 -52 35 -22 13
-42 27 -45 30 -4 5 -156 81 -170 85 -3 1 -18 7 -33 13 -16 7 -51 19 -77 28
-48 15 -50 18 -65 73 -28 96 -85 242 -133 341 -40 82 -165 295 -181 310 -4 3
-33 41 -65 85 -63 85 -267 295 -351 361 -27 21 -51 42 -53 47 -2 4 -8 7 -14 7
-5 0 -17 7 -26 16 -20 21 -180 124 -192 124 -4 0 -10 4 -12 8 -8 21 -378 186
-435 195 -10 1 -22 5 -28 8 -12 7 -63 22 -85 25 -8 1 -33 6 -55 12 -22 6 -51
13 -65 16 -14 3 -34 7 -45 9 -11 3 -45 8 -75 12 -30 5 -64 10 -75 12 -27 4
-422 12 -427 8z m270 -480 c215 -9 454 -69 652 -163 41 -19 77 -38 80 -42 3
-4 17 -10 33 -14 15 -3 27 -11 27 -16 0 -6 7 -10 15 -10 8 0 15 -4 15 -10 0
-5 7 -10 15 -10 8 0 15 -3 15 -8 0 -4 12 -13 28 -20 75 -34 287 -228 392 -358
58 -72 80 -103 80 -113 0 -6 4 -11 8 -11 7 0 49 -70 109 -180 10 -19 34 -71
52 -115 45 -108 47 -113 62 -165 7 -25 16 -50 21 -56 4 -6 6 -13 3 -16 -3 -2
1 -29 9 -59 15 -59 22 -98 32 -174 3 -27 7 -51 8 -52 1 -1 38 -5 82 -8 187
-12 380 -89 533 -214 40 -32 67 -59 135 -135 28 -31 99 -144 123 -196 68 -144
92 -263 87 -430 -4 -129 -7 -164 -17 -190 -3 -8 -13 -42 -22 -75 -65 -235
-259 -461 -492 -575 -121 -59 -223 -87 -348 -95 -38 -2 -72 -5 -75 -6 -3 -1
-9 0 -15 1 -8 2 -103 1 -147 -1 -7 0 -24 0 -38 1 -26 1 -155 2 -177 1 -15 -1
-27 -1 -88 -1 -25 0 -52 0 -60 0 -8 0 -35 0 -60 0 -25 0 -52 0 -60 0 -8 0 -35
0 -60 0 -25 0 -52 0 -60 0 -8 0 -35 0 -60 0 -25 0 -52 0 -60 0 -8 0 -35 0 -60
0 -25 0 -52 0 -60 0 -8 0 -35 0 -60 0 -25 0 -52 0 -60 0 -8 0 -35 0 -60 0 -25
0 -52 0 -60 0 -8 0 -35 0 -60 0 -25 0 -52 0 -60 0 -8 0 -35 0 -60 0 -25 0 -52
0 -60 0 -8 0 -35 0 -60 0 -25 0 -52 0 -60 0 -8 0 -35 0 -60 0 -25 0 -52 0 -60
0 -8 0 -35 0 -60 0 -25 0 -52 0 -60 0 -8 0 -35 0 -60 0 -25 0 -52 0 -60 0 -8
0 -35 0 -60 0 -25 0 -52 0 -60 0 -8 0 -35 0 -60 0 -25 0 -52 0 -60 0 -8 0 -35
0 -60 0 -25 0 -52 0 -60 0 -8 0 -35 0 -60 0 -25 0 -52 0 -60 0 -8 0 -35 0 -60
0 -25 0 -51 0 -57 0 -7 -1 -46 1 -86 2 -39 2 -72 0 -72 -4 0 -4 -6 -5 -14 -2
-21 8 -106 10 -106 2 0 -4 -6 -5 -14 -2 -21 8 -106 10 -106 2 0 -4 -6 -5 -14
-2 -21 8 -106 10 -106 2 0 -4 -6 -5 -14 -2 -21 8 -106 10 -106 2 0 -4 -6 -5
-14 -2 -21 8 -106 10 -106 2 0 -4 -6 -5 -14 -2 -21 8 -106 10 -106 2 0 -4 -6
-5 -14 -2 -21 8 -106 10 -106 2 0 -4 -13 -3 -29 2 -15 4 -34 4 -42 0 -7 -5
-17 -7 -21 -4 -4 3 -49 7 -100 9 -51 3 -118 10 -148 17 -64 14 -54 11 -105 26
-22 6 -44 12 -50 13 -5 0 -21 6 -35 13 -14 7 -47 23 -75 36 -147 69 -329 221
-424 353 -58 79 -141 240 -156 302 -2 6 -10 35 -18 65 -31 109 -50 292 -35
337 4 12 3 25 -3 28 -5 4 -7 10 -4 15 2 4 7 25 10 46 3 22 8 50 11 64 2 14 7
38 10 54 7 38 42 141 67 196 12 25 21 47 22 50 1 11 82 140 115 185 25 33 195
199 226 220 104 72 204 122 315 159 71 23 96 29 184 44 52 8 253 8 333 -1 53
-6 62 -4 62 9 0 30 52 170 104 279 51 107 160 287 177 293 5 2 9 9 9 16 0 6 8
19 18 28 9 9 35 37 57 63 33 40 104 111 185 186 10 9 44 36 76 60 33 23 62 47
66 53 4 6 8 7 8 3 0 -5 22 8 50 28 96 70 392 200 500 219 14 3 25 5 25 6 0 1
7 3 15 5 8 1 42 8 75 15 74 16 95 18 219 24 54 3 101 8 104 10 2 3 9 3 14 0 5
-3 44 -7 86 -9z"/>
<path d="M7838 5081 c-2 -25 -1 -64 2 -86 3 -22 3 -53 0 -70 -3 -16 -3 -58 0
-93 3 -35 4 -65 1 -67 -6 -7 -4 -102 3 -113 7 -12 56 -22 56 -12 0 4 17 4 38
1 20 -4 54 -4 74 -1 20 4 43 3 50 -1 6 -4 19 -4 28 1 9 5 22 5 30 0 8 -5 21
-5 30 0 9 5 22 5 30 0 8 -5 21 -5 29 -1 9 4 30 5 46 1 17 -3 44 -3 60 0 17 4
41 3 55 0 14 -4 35 -3 47 1 12 5 25 4 28 -1 3 -5 18 -5 34 0 15 4 34 4 42 0 7
-5 20 -5 30 0 9 5 19 7 22 3 4 -3 32 -5 64 -4 32 1 67 1 78 1 11 -1 25 -1 30
-1 6 0 33 0 60 1 73 0 88 0 105 1 8 0 22 -1 30 -3 13 -3 15 30 18 237 l2 241
-37 3 c-21 2 -45 3 -53 2 -51 -3 -144 0 -151 5 -5 3 -9 1 -9 -4 0 -5 -19 -6
-43 -2 -24 3 -52 3 -62 0 -10 -3 -37 -3 -60 0 -23 3 -50 3 -61 0 -10 -4 -30
-4 -44 0 -14 3 -42 3 -62 0 -21 -4 -40 -5 -42 -2 -9 8 -106 7 -106 -1 0 -5 -4
-6 -9 -3 -7 5 -63 7 -111 5 -8 0 -52 1 -98 2 -45 1 -84 0 -87 -3 -3 -3 -23 -2
-45 2 l-39 7 -3 -46z"/>
<path d="M7353 3496 c-12 -13 -27 -28 -35 -33 -7 -5 -73 -70 -147 -145 l-133
-136 395 -396 396 -396 170 169 170 169 -378 379 c-208 208 -387 386 -398 395
-19 17 -20 17 -40 -6z"/>
</g>
</svg>
