<?xml version="1.0" encoding="utf-8"?><svg xmlns="http://www.w3.org/2000/svg" xmlns:xlink="http://www.w3.org/1999/xlink"><symbol viewBox="0 0 470 470" id="barometer" xmlns="http://www.w3.org/2000/svg"><path d="M401.17 68.83C356.785 24.444 297.771 0 235 0S113.215 24.444 68.83 68.83C24.444 113.216 0 172.229 0 235s24.444 121.784 68.83 166.17C113.215 445.556 172.229 470 235 470s121.785-24.444 166.17-68.83C445.556 356.784 470 297.771 470 235s-24.444-121.784-68.83-166.17zM235 455c-121.309 0-220-98.691-220-220S113.691 15 235 15s220 98.691 220 220-98.691 220-220 220z"/><path d="M235 30C121.962 30 30 121.963 30 235s91.962 205 205 205 205-91.963 205-205S348.038 30 235 30zm0 395c-104.766 0-190-85.233-190-190S130.234 45 235 45s190 85.233 190 190-85.234 190-190 190z"/><path d="M369.968 157.838a7.582 7.582 0 00-.301-.588 7.78 7.78 0 00-.439-.673 156.667 156.667 0 00-55.805-55.805 7.41 7.41 0 00-.673-.439 7.93 7.93 0 00-.587-.301C289.41 86.974 263.062 79.5 235 79.5c-28.063 0-54.412 7.474-77.165 20.534a7.864 7.864 0 00-.585.299 7.78 7.78 0 00-.673.439 156.667 156.667 0 00-55.805 55.805 7.41 7.41 0 00-.439.673c-.111.193-.209.39-.301.588C86.974 180.59 79.5 206.938 79.5 235c0 27.312 7.215 54.195 20.873 77.762.385.66 3.967 6.332 11.159 2.183l20.697-11.949a7.5 7.5 0 00-7.5-12.99l-14.966 8.641c-8.874-17.413-14.004-36.571-15.052-56.146H112c4.142 0 7.5-3.357 7.5-7.5s-3.358-7.5-7.5-7.5H94.701a139.493 139.493 0 0115.062-56.146l14.966 8.641a7.497 7.497 0 0010.245-2.745 7.5 7.5 0 00-2.745-10.245l-14.94-8.625a141.607 141.607 0 0141.09-41.09l8.625 14.939a7.497 7.497 0 0010.245 2.745 7.5 7.5 0 002.745-10.245l-8.641-14.966a139.488 139.488 0 0156.145-15.062V112c0 4.143 3.358 7.5 7.5 7.5s7.5-3.357 7.5-7.5V94.701a139.484 139.484 0 0156.145 15.062l-8.641 14.966a7.5 7.5 0 0012.99 7.5l8.625-14.939a141.62 141.62 0 0141.09 41.09l-14.94 8.625a7.5 7.5 0 007.5 12.99l14.966-8.641a139.505 139.505 0 0115.062 56.146H358c-4.142 0-7.5 3.357-7.5 7.5s3.358 7.5 7.5 7.5h17.29a140.619 140.619 0 01-15.034 56.156l-14.984-8.651a7.5 7.5 0 00-7.5 12.99l21.651 12.5a7.498 7.498 0 0010.243-2.742c13.63-23.58 20.835-50.467 20.835-77.753-.001-28.062-7.475-54.41-20.533-77.162z"/><path d="M260.554 189.15a7.498 7.498 0 00-10.192 2.904l-11.582 20.769a22.534 22.534 0 00-3.78-.324c-12.407 0-22.5 10.094-22.5 22.5 0 1.404.136 2.776.383 4.109l-62.173 35.896a7.5 7.5 0 007.5 12.99l62.184-35.902a22.394 22.394 0 0014.607 5.407c9.66 0 17.915-6.12 21.098-14.685l23.775.354.114.001a7.5 7.5 0 007.497-7.376 52.37 52.37 0 00-7.018-27.045 52.396 52.396 0 00-19.913-19.598zM235 242.5c-4.136 0-7.5-3.364-7.5-7.5s3.364-7.5 7.5-7.5c1.302 0 2.528.335 3.596.921l.054.034c2.297 1.29 3.85 3.738 3.85 6.545 0 .032-.004.064-.005.096-.063 4.101-3.398 7.404-7.495 7.404zm21.317-14.683a22.507 22.507 0 00-4.443-7.677l7.571-13.576a37.434 37.434 0 018.031 9.686 37.456 37.456 0 014.373 11.799l-15.532-.232zm4.83 147.683h-52.294c-4.142 0-7.5 3.357-7.5 7.5s3.358 7.5 7.5 7.5h52.294c4.142 0 7.5-3.357 7.5-7.5s-3.358-7.5-7.5-7.5zm-10-15c4.142 0 7.5-3.357 7.5-7.5s-3.358-7.5-7.5-7.5h-32.294c-4.142 0-7.5 3.357-7.5 7.5s3.358 7.5 7.5 7.5h32.294z"/></symbol><symbol viewBox="0 0 329.269 329" id="close" xmlns="http://www.w3.org/2000/svg"><path d="M194.8 164.77L323.013 36.555c8.343-8.34 8.343-21.825 0-30.164-8.34-8.34-21.825-8.34-30.164 0L164.633 134.605 36.422 6.391c-8.344-8.34-21.824-8.34-30.164 0-8.344 8.34-8.344 21.824 0 30.164l128.21 128.215L6.259 292.984c-8.344 8.34-8.344 21.825 0 30.164a21.266 21.266 0 0015.082 6.25c5.46 0 10.922-2.09 15.082-6.25l128.21-128.214 128.216 128.214a21.273 21.273 0 0015.082 6.25c5.46 0 10.922-2.09 15.082-6.25 8.343-8.34 8.343-21.824 0-30.164zm0 0"/></symbol><symbol viewBox="0 0 52 35" id="cloud" xmlns="http://www.w3.org/2000/svg"><path d="M42 35H12v-.057c-.33.03-.662.057-1 .057a11 11 0 010-22c.127 0 .25.015.375.019a16.49 16.49 0 0132.559 2.172A10 10 0 0142 35zm0-17a7.026 7.026 0 00-1.121.1A13.35 13.35 0 0041 16.5a13.5 13.5 0 00-27 0v.089a8.027 8.027 0 10-2 15.331V32h30a7 7 0 000-14z"/></symbol><symbol viewBox="0 0 53 42.969" id="cloud-big-moon" xmlns="http://www.w3.org/2000/svg"><path d="M44.373 30.16a11.943 11.943 0 00-1.3-2.7 13.052 13.052 0 006.171-7.145A13.983 13.983 0 0131.261 4.323a13.036 13.036 0 00-6.717 7.942 16.573 16.573 0 00-3.017-.291A15.989 15.989 0 0136.5-.005 10.995 10.995 0 0052.935 14.58c.039.459.07.92.07 1.389a15.987 15.987 0 01-8.632 14.191zm-8.868-4.83A9 9 0 0133 42.969H10a9.994 9.994 0 01-.65-19.967 13.98 13.98 0 0126.155 2.328zm-24.116.778A7 7 0 1010 39.969h23a6 6 0 000-12h-.05a10.991 10.991 0 00-21.561-1.861z"/></symbol><symbol viewBox="0 0 56 46" id="cloud-big-sun" xmlns="http://www.w3.org/2000/svg"><path d="M49 22v-3h7v3h-7zM43.985 9.893l4.95-4.949 2.121 2.121-4.949 4.95zm-2.173 18.982a12.006 12.006 0 00-2.383-2 7.494 7.494 0 10-10.312-10.3 16.836 16.836 0 00-2.878-1.023 10.5 10.5 0 1115.573 13.323zM34 0h3v7h-3V0zM19.944 7.065l2.121-2.121 4.95 4.949-2.122 2.122zm15.561 21.3A9 9 0 0133 46H10a9.994 9.994 0 01-.65-19.967 13.98 13.98 0 0126.155 2.328zm-24.116.778A7 7 0 1010 43h23a6 6 0 000-12h-.05a10.991 10.991 0 00-21.561-1.861zm39.667 4.8l-2.121 2.121-4.95-4.949 2.122-2.122z"/></symbol><symbol viewBox="0 0 47 45.969" id="cloud-small-moon" xmlns="http://www.w3.org/2000/svg"><path d="M31 31.969a15.991 15.991 0 01-.5-31.974A10.995 10.995 0 0046.935 14.58c.039.459.07.92.07 1.389a16 16 0 01-16.005 16zm8-11a13.977 13.977 0 01-13.742-16.65 12.992 12.992 0 1017.983 15.992 13.984 13.984 0 01-4.241.658zm-29 8a7 7 0 000 14h23a6 6 0 006-6 5.9 5.9 0 00-1.036-3.335 18.759 18.759 0 002.7-1.329A8.907 8.907 0 0142 36.969a9 9 0 01-9 9H10a9.994 9.994 0 01-.65-19.967 14.085 14.085 0 013.456-4.57 18.779 18.779 0 001.2 3 11 11 0 00-2.617 4.68A7.059 7.059 0 0010 28.969z"/></symbol><symbol viewBox="0 0 51 50" id="cloud-small-sun" xmlns="http://www.w3.org/2000/svg"><path d="M44 22v-3h7v3h-7zM38.985 9.893l4.95-4.949 2.121 2.121-4.949 4.95zM30.5 31A10.5 10.5 0 1141 20.5 10.5 10.5 0 0130.5 31zm0-18a7.5 7.5 0 107.5 7.5 7.5 7.5 0 00-7.5-7.5zM29 0h3v7h-3V0zM14.944 7.065l2.121-2.121 4.95 4.949-2.122 2.122zM17 22h-7v-3h7v3zm2.893 6.985l2.122 2.122-4.95 4.949-2.121-2.121zM32 34v7h-3v-7h3zm-18.622-9h4.417c.086.247.159.5.26.74a11.023 11.023 0 00-6.666 7.4A7 7 0 1010 47h23a5.986 5.986 0 002-11.633v-2.176a13.539 13.539 0 001.316-.522h.006l5.015 5.016A8.835 8.835 0 0142 41a9 9 0 01-9 9H10a9.994 9.994 0 01-.65-19.967A14.059 14.059 0 0113.378 25zm27.729 3.985l4.949 4.95-2.121 2.121-4.95-4.949z"/></symbol><symbol preserveAspectRatio="none" viewBox="0 0 32.75 32.75" id="day" xmlns="http://www.w3.org/2000/svg"><path d="M14.915 25.666h3.36v-14.16h-2.36c-.04.227-.116.47-.229.73s-.291.5-.53.72c-.24.22-.563.403-.97.55-.407.147-.931.22-1.57.22h-.42v2.12h2.72l-.001 9.82z"/><path d="M29.375 1.25h-1.123c.029-.093.059-.186.059-.289a.963.963 0 00-1.924 0c0 .104.028.196.059.289h-3.68c.029-.093.059-.186.059-.289a.963.963 0 00-1.925 0c0 .104.029.196.06.289h-3.681c.029-.093.058-.186.058-.289a.961.961 0 00-1.922 0c0 .104.028.196.058.289h-3.681c.029-.093.059-.186.059-.289a.962.962 0 00-1.923 0c0 .104.028.196.058.289h-3.68a.93.93 0 00.059-.289.961.961 0 00-1.923 0c0 .104.028.196.058.289H3.375A2.752 2.752 0 00.625 4v26a2.751 2.751 0 002.75 2.75H26.27l5.855-5.855V4a2.752 2.752 0 00-2.75-2.75zm1.25 25.023l-.311.311h-2.355c-1.102 0-2 .898-2 2v2.355l-.311.311H3.375c-.689 0-1.25-.561-1.25-1.25V9h28.5v17.273zm0-19.065c0 .55-.45 1-1 1h-26.5c-.55 0-1-.45-1-1v-4c0-.55.45-1 1-1h26.5c.55 0 1 .45 1 1v4z"/></symbol><symbol viewBox="0 0 52 43" id="drizzle" xmlns="http://www.w3.org/2000/svg"><path d="M42 35h-1v-3h1a7 7 0 10-1.121-13.9A13.35 13.35 0 0041 16.5a13.5 13.5 0 00-27 0v.089A8 8 0 1011 32v3a11 11 0 010-22c.127 0 .25.015.375.019a16.49 16.49 0 0132.559 2.172A10 10 0 0142 35zm-25-4h-3v-6h3v6zm0 9h-3v-6h3v6zm7-6h-3v-6h3v6zm0 9h-3v-6h3v6zm7-12h-3v-6h3v6zm0 9h-3v-6h3v6zm7-6h-3v-6h3v6zm0 9h-3v-6h3v6z"/></symbol><symbol viewBox="0 0 35 45" id="drops" xmlns="http://www.w3.org/2000/svg"><path d="M27 45a8 8 0 01-8-8c0-7 8-14 8-14s8 7 8 14a8 8 0 01-8 8zm0-18s-5 5-5 10a5 5 0 0010 0c0-5-5-10-5-10zm-6-5a8 8 0 01-8-8c0-7 8-14 8-14s8 7 8 14a8 8 0 01-8 8zm0-18s-5 5-5 10a5 5 0 0010 0c0-5-5-10-5-10zM8 39a8 8 0 01-8-8c0-7 8-14 8-14s8 7 8 14a8 8 0 01-8 8zm0-18s-5 5-5 10a5 5 0 0010 0c0-5-5-10-5-10z"/></symbol><symbol viewBox="0 0 47 47" id="mist" xmlns="http://www.w3.org/2000/svg"><path d="M31 3H5a2.938 2.938 0 01-3-3h24a2.938 2.938 0 01-3 3zM21 24H7a2.938 2.938 0 01-3-3h25a2.938 2.938 0 01-3 3zm-5 7h1a2.938 2.938 0 01-3-3h20a2.938 2.938 0 01-3 3zM6 38a2.938 2.938 0 01-3-3h25a2.938 2.938 0 01-3 3zm1-24h15a2.938 2.938 0 01-3 3H5a2.938 2.938 0 01-3-3zm2-7h28a2.938 2.938 0 01-3 3H18a2.938 2.938 0 01-3-3z"/></symbol><symbol viewBox="0 0 41.844 41.844" id="moon" xmlns="http://www.w3.org/2000/svg"><path d="M16 8.844a16.974 16.974 0 0025.837 14.5A20.993 20.993 0 1118.5.007 16.9 16.9 0 0016 8.844zm-13 12a17.99 17.99 0 0034.341 7.514A19.963 19.963 0 0113.486 4.503 17.988 17.988 0 003 20.844z"/></symbol><symbol viewBox="0 0 512 512" preserveAspectRatio="none" id="placeholder" xmlns="http://www.w3.org/2000/svg"><g fill="#231F20"><path d="M313.9 376.7c41.3-68.5 93.5-164.8 93.5-214.3C407.4 78.9 339.5 11 256 11S104.6 78.9 104.6 162.4c0 49.5 52.2 145.8 93.5 214.3-49 3.7-160.5 17-160.5 61.1 0 43.4 113.2 63.2 218.5 63.2 105.2 0 218.5-19.8 218.5-63.2-.1-44.1-111.7-57.4-160.7-61.1zM125.5 162.4c0-72 58.6-130.6 130.5-130.6 72 0 130.6 58.6 130.6 130.6 0 62.9-100.2 220.7-130.6 267.1-30.4-46.4-130.5-204.2-130.5-267.1zM256 480.1c-127.9 0-197.6-28-197.6-42.4 0-11.1 46-35 152-41.1 19.9 32.1 35 54.8 37 57.5 2.7 3.6 10.6 7.9 17.3 0 2.1-2.5 17.1-25.4 37-57.5 106 6.1 152 29.9 152 41.1-.1 14.5-69.8 42.4-197.7 42.4z"/><path d="M321.9 162.4c0-36.4-29.5-65.9-65.9-65.9-36.4 0-65.9 29.5-65.9 65.9 0 36.4 29.5 65.9 65.9 65.9 36.4 0 65.9-29.5 65.9-65.9zm-111 0c0-24.9 20.2-45.1 45.1-45.1s45.1 20.2 45.1 45.1c0 24.9-20.2 45.1-45.1 45.1s-45.1-20.2-45.1-45.1z"/></g></symbol><symbol viewBox="0 0 52 43" id="rain" xmlns="http://www.w3.org/2000/svg"><path d="M42 35c-.221 0-.437-.022-.654-.036l.993-2.981A7 7 0 0042 18a7.064 7.064 0 00-1.1.094A13.5 13.5 0 1014 16.5v.089A8 8 0 1011 32c.117 0 .227-.022.343-.027l-1 2.994A10.993 10.993 0 0111 13c.127 0 .25.015.375.019a16.49 16.49 0 0132.559 2.172A10 10 0 0142 35zM20 25l-5 15h-3l5-15h3zm6 3l-5 15h-3l5-15h3zm8-3l-5 15h-3l5-15h3zm6 3l-5 15h-3l5-15h3z"/></symbol><symbol viewBox="0 0 512.005 512.005" id="search" xmlns="http://www.w3.org/2000/svg"><path d="M505.749 475.587l-145.6-145.6c28.203-34.837 45.184-79.104 45.184-127.317C405.333 90.926 314.41.003 202.666.003S0 90.925 0 202.669s90.923 202.667 202.667 202.667c48.213 0 92.48-16.981 127.317-45.184l145.6 145.6c4.16 4.16 9.621 6.251 15.083 6.251s10.923-2.091 15.083-6.251c8.341-8.341 8.341-21.824-.001-30.165zM202.667 362.669c-88.235 0-160-71.765-160-160s71.765-160 160-160 160 71.765 160 160-71.766 160-160 160z"/></symbol><symbol viewBox="0 0 456.556 456.556" id="settings" xmlns="http://www.w3.org/2000/svg"><path d="M97.564 79.443H13.428C6.011 79.443 0 73.428 0 66.015s6.011-13.428 13.428-13.428h84.136c7.417 0 13.428 6.015 13.428 13.428s-6.011 13.428-13.428 13.428z"/><path d="M145.643 127.518c-33.916 0-61.507-27.591-61.507-61.504 0-33.92 27.591-61.511 61.507-61.511s61.507 27.591 61.507 61.511c0 33.914-27.591 61.504-61.507 61.504zm0-96.158c-19.107 0-34.651 15.547-34.651 34.654s15.544 34.647 34.651 34.647 34.651-15.54 34.651-34.647S164.75 31.36 145.643 31.36zm297.485 48.083H242.433c-7.417 0-13.428-6.015-13.428-13.428s6.011-13.428 13.428-13.428h200.694c7.417 0 13.428 6.015 13.428 13.428s-6.01 13.428-13.427 13.428zM325.936 289.782c-33.917 0-61.507-27.591-61.507-61.504s27.591-61.504 61.507-61.504 61.507 27.591 61.507 61.504-27.59 61.504-61.507 61.504zm0-96.151c-19.107 0-34.651 15.54-34.651 34.647s15.544 34.647 34.651 34.647 34.651-15.54 34.651-34.647-15.544-34.647-34.651-34.647zm-96.787 48.075H13.428C6.011 241.706 0 235.691 0 228.278s6.011-13.428 13.428-13.428h215.721c7.417 0 13.428 6.015 13.428 13.428s-6.011 13.428-13.428 13.428z"/><path d="M443.128 241.706h-69.113c-7.417 0-13.428-6.015-13.428-13.428s6.011-13.428 13.428-13.428h69.113c7.417 0 13.428 6.015 13.428 13.428s-6.011 13.428-13.428 13.428zM130.62 452.052c-33.916 0-61.507-27.591-61.507-61.511 0-33.913 27.591-61.504 61.507-61.504s61.507 27.591 61.507 61.504c0 33.92-27.591 61.511-61.507 61.511zm0-96.158c-19.107 0-34.651 15.54-34.651 34.647s15.544 34.654 34.651 34.654 34.651-15.547 34.651-34.654-15.544-34.647-34.651-34.647zm312.508 48.076H227.407c-7.417 0-13.428-6.015-13.428-13.428 0-7.413 6.011-13.428 13.428-13.428h215.721c7.417 0 13.428 6.015 13.428 13.428 0 7.413-6.011 13.428-13.428 13.428z"/><path d="M82.541 403.97H13.428C6.011 403.97 0 397.955 0 390.541c0-7.413 6.011-13.428 13.428-13.428h69.113c7.417 0 13.428 6.015 13.428 13.428 0 7.414-6.011 13.429-13.428 13.429z"/></symbol><symbol viewBox="0 0 52 47" id="sleet" xmlns="http://www.w3.org/2000/svg"><path d="M47 33.651v-3.762a6.937 6.937 0 00-6.107-11.777A13.5 13.5 0 1014 16.5v.089a8 8 0 00-9.138 12.544l-2.121 2.121A10.987 10.987 0 0111 13c.127 0 .25.015.375.019a16.49 16.49 0 0132.559 2.172A9.992 9.992 0 0147 33.651zM8 30l2-2 5 5h2v-2l-5-5 2-2 3 4v-6h3v6l3-4 2 2-5 5v2h2l5-5 2 2-4 3h6v3h-6l4 3-2 2-5-5h-2v2l5 5-2 2-3-4v6h-3v-6l-3 4-2-2 5-5v-2h-2l-5 5-2-2 4-3H6v-3h6zm29 2h-3v-6h3v6zm0 9h-3v-6h3v6zm7-6h-3v-6h3v6zm0 9h-3v-6h3v6z"/></symbol><symbol viewBox="0 0 52 43" id="snow" xmlns="http://www.w3.org/2000/svg"><path d="M42 35v-3a7 7 0 10-1.105-13.9A13.5 13.5 0 1014 16.5v.089A8 8 0 1011 32v3a11 11 0 010-22c.127 0 .25.015.375.019a16.49 16.49 0 0132.559 2.172A10 10 0 0142 35zm-30-3h-1a8.028 8.028 0 001-.08V32zm4-6l2-2 5 5h2v-2l-5-5 2-2 3 4v-6h3v6l3-4 2 2-5 5v2h2l5-5 2 2-4 3h6v3h-6l4 3-2 2-5-5h-2v2l5 5-2 2-3-4v6h-3v-6l-3 4-2-2 5-5v-2h-2l-5 5-2-2 4-3h-6v-3h6z"/></symbol><symbol viewBox="0 0 52 47" id="snow-rain" xmlns="http://www.w3.org/2000/svg"><path d="M47.146 33.563L49 28v-2h-.1a6.858 6.858 0 00.1-1 6.864 6.864 0 00-8.105-6.888A13.5 13.5 0 1014 16.5v.089a8 8 0 00-8.662 13.068l-2.121 2.121A11 11 0 0111 13c.127 0 .25.015.375.019a16.49 16.49 0 0132.559 2.172 9.99 9.99 0 013.212 18.372zM8 30l2-2 5 5h2v-2l-5-5 2-2 3 4v-6h3v6l3-4 2 2-5 5v2h2l5-5 2 2-4 3h6v3h-6l4 3-2 2-5-5h-2v2l5 5-2 2-3-4v6h-3v-6l-3 4-2-2 5-5v-2h-2l-5 5-2-2 4-3H6v-3h6zm32-5l-5 15h-3l5-15h3zm6 3l-5 15h-3l5-15h3z"/></symbol><symbol viewBox="0 0 47 47" id="sun" xmlns="http://www.w3.org/2000/svg"><path d="M40 25v-3h7v3h-7zm-5.893-14.228l4.949-4.95 2.122 2.122-4.95 4.949zM23.5 37A13.5 13.5 0 1137 23.5 13.5 13.5 0 0123.5 37zm0-24A10.5 10.5 0 1034 23.5 10.5 10.5 0 0023.5 13zM22 0h3v7h-3V0zM5.822 7.944l2.122-2.122 4.949 4.95-2.121 2.121zM7 25H0v-3h7v3zm5.893 11.228l-4.949 4.95-2.122-2.122 4.95-4.949zM25 47h-3v-7h3v7zm16.178-7.944l-2.122 2.122-4.949-4.95 2.121-2.121z"/></symbol><symbol viewBox="0 0 26 50" id="thermometer-10" xmlns="http://www.w3.org/2000/svg"><path d="M26 37A13 13 0 114.7 27H4V8h.059a9 9 0 0117.882 0H22v19h-.7A12.968 12.968 0 0126 37zm-6-7.11V29h-1V8h-.09A5.993 5.993 0 007.09 8H7v21H6v.89a10 10 0 1014 0zM13 44a6.948 6.948 0 01-6.92-8h13.841A7.2 7.2 0 0120 37a7 7 0 01-7 7z"/></symbol><symbol viewBox="0 0 26 50" id="thermometer-100" xmlns="http://www.w3.org/2000/svg"><path d="M26 37A13 13 0 114.7 27H4V8h.059a9 9 0 0117.882 0H22v19h-.7A12.973 12.973 0 0126 37zm-7-7.986V8h-.09A5.993 5.993 0 007.09 8H7v21.014a10 10 0 1012 0zM13 44a7 7 0 01-3-13.317V9a3 3 0 016 0v21.683A7 7 0 0113 44z"/></symbol><symbol viewBox="0 0 26 50" id="thermometer-25" xmlns="http://www.w3.org/2000/svg"><path d="M26 37A13 13 0 114.7 27H4V8h.059a9 9 0 0117.882 0H22v19h-.7A12.968 12.968 0 0126 37zm-7-7.99V8h-.09A5.993 5.993 0 007.09 8H7v21.01a10 10 0 1012 0zM13 44a7 7 0 01-3-13.32V27h6v3.68A7 7 0 0113 44z"/></symbol><symbol viewBox="0 0 26 50" id="thermometer-50" xmlns="http://www.w3.org/2000/svg"><path d="M26 37A13 13 0 114.7 27H4V8h.059a9 9 0 0117.882 0H22v19h-.7A12.968 12.968 0 0126 37zm-7-7.99V8h-.09A5.993 5.993 0 007.09 8H7v21.01a10 10 0 1012 0zM13 44a7 7 0 01-3-13.32V20h6v10.68A7 7 0 0113 44z"/></symbol><symbol viewBox="0 0 26 50" id="thermometer-75" xmlns="http://www.w3.org/2000/svg"><path d="M26 37A13 13 0 114.7 27H4V8h.059a9 9 0 0117.882 0H22v19h-.7A12.973 12.973 0 0126 37zm-7-7.986V8h-.09A5.993 5.993 0 007.09 8H7v21.014a10 10 0 1012 0zM13 44a7 7 0 01-3-13.317V14h6v16.683A7 7 0 0113 44z"/></symbol><symbol viewBox="0 0 52 45" id="thunder" xmlns="http://www.w3.org/2000/svg"><path d="M42 35h-8.444l2.666-3H42a7 7 0 10-1.122-13.887A13.488 13.488 0 1014 16.5v.089a8.027 8.027 0 10-2 15.331V32h7v3h-7v-.057c-.33.03-.662.057-1 .057a11 11 0 010-22c.127 0 .25.015.375.019a16.49 16.49 0 0132.559 2.172A10 10 0 0142 35zM31 11v14h7L22 45V30h-7zm-6 16v10l7-9h-4v-9l-7 8h4z"/></symbol><symbol viewBox="0 0 52 47" id="thunder-drizzle" xmlns="http://www.w3.org/2000/svg"><path d="M44 34.8v-3.124a6.965 6.965 0 00-3.122-13.562A13.488 13.488 0 1014 16.5v.089a7.993 7.993 0 00-9.955 11.362l-2.181 2.181A11 11 0 0111 13c.127 0 .25.015.375.019a16.49 16.49 0 0132.559 2.172A10 10 0 0144 34.8zM21 27h7L12 47V32H5l16-19v14zm-3-6l-7 8h4v10l7-9h-4v-9zm9 23h-3v-6h3v6zm7-12h-3v-6h3v6zm0 9h-3v-6h3v6zm7-6h-3v-6h3v6zm0 9h-3v-6h3v6z"/></symbol><symbol viewBox="0 0 52 47" id="thunder-rain" xmlns="http://www.w3.org/2000/svg"><path d="M44.08 34.78l1.35-3.713a6.95 6.95 0 00-4.552-12.954A13.488 13.488 0 1014 16.5v.089a7.993 7.993 0 00-9.956 11.362l-2.181 2.181A11 11 0 0111 13c.127 0 .25.015.375.019a16.49 16.49 0 0132.559 2.172 10 10 0 01.146 19.589zM21 27h7L12 47V32H5l16-19v14zm-3-6l-7 8h4v10l7-9h-4v-9zm8 16l-2 6h-3l2-6h3zm11-12l-5 15h-3l5-15h3zm6 3l-5 15h-3l5-15h3z"/></symbol><symbol viewBox="0 0 44 45" id="tornado" xmlns="http://www.w3.org/2000/svg"><path d="M32.5 45A11.5 11.5 0 1144 33.5 11.5 11.5 0 0132.5 45zm0-20a8.5 8.5 0 108.5 8.5 8.5 8.5 0 00-8.5-8.5zM31 36h3v3h-3v-3zm0-8h3v7h-3v-7zm3-18H12a2.938 2.938 0 01-3-3h28a2.938 2.938 0 01-3 3zm-3-7H3a2.938 2.938 0 01-3-3h34a2.938 2.938 0 01-3 3zM7 14h26a2.938 2.938 0 01-3 3H10a2.938 2.938 0 01-3-3zm14 10H7a2.938 2.938 0 01-3-3h20a2.938 2.938 0 01-3 3zm-5 7h-5a2.938 2.938 0 01-3-3h11a2.938 2.938 0 01-3 3zm0 7a2.938 2.938 0 01-3-3h6a2.938 2.938 0 01-3 3z"/></symbol><symbol preserveAspectRatio="none" viewBox="0 0 32.75 32.75" id="week" xmlns="http://www.w3.org/2000/svg"><path d="M16.346 17.016a25.08 25.08 0 00-1.261 2.91c-.366 1.014-.673 2.021-.92 3.021s-.397 1.906-.45 2.72h3.48c.039-.786.16-1.667.359-2.64.199-.975.467-1.971.801-2.99a28.723 28.723 0 011.18-3.021 20.05 20.05 0 011.5-2.729v-2.5h-9.02v2.84h5.799a15.94 15.94 0 00-1.468 2.389z"/><path d="M29.375 1.25h-1.123c.029-.093.059-.186.059-.289a.963.963 0 00-1.924 0c0 .104.028.196.059.289h-3.68c.029-.093.059-.186.059-.289a.963.963 0 00-1.925 0c0 .104.029.196.06.289h-3.681c.029-.093.058-.186.058-.289a.961.961 0 00-1.922 0c0 .104.028.196.058.289h-3.681c.029-.093.059-.186.059-.289a.962.962 0 00-1.923 0c0 .104.028.196.058.289h-3.68a.93.93 0 00.059-.289.961.961 0 00-1.923 0c0 .104.028.196.058.289H3.375A2.752 2.752 0 00.625 4v26a2.751 2.751 0 002.75 2.75H26.27l5.855-5.855V4a2.752 2.752 0 00-2.75-2.75zm1.25 25.023l-.311.311h-2.355c-1.102 0-2 .898-2 2v2.355l-.311.311H3.375c-.689 0-1.25-.561-1.25-1.25V9h28.5v17.273zm0-19.065c0 .55-.45 1-1 1h-26.5c-.55 0-1-.45-1-1v-4c0-.55.45-1 1-1h26.5c.55 0 1 .45 1 1v4z"/></symbol><symbol viewBox="0 0 47 39" id="wind" xmlns="http://www.w3.org/2000/svg"><path d="M38 20H0v-3h38a6 6 0 10-6-6v3h-3v-3a9 9 0 119 9zm-19-6H0v-3h19a4 4 0 10-4-4v1h-3V7a7 7 0 117 7zm23 17a8 8 0 01-16 0v-2h3v2a5 5 0 105-5H0v-3h34a8 8 0 018 8z"/></symbol></svg>