<svg xmlns="http://www.w3.org/2000/svg" width="47" height="45.969" viewBox="0 0 47 45.969">
  <defs>
    <style>
      .cls-1 {
        fill: #fff;
        fill-rule: evenodd;
      }
    </style>
  </defs>
  <path id="moon_small_cloud" data-name="moon, small cloud" class="cls-1" d="M337,379a15.991,15.991,0,0,1-.5-31.974,10.995,10.995,0,0,0,16.435,14.585c0.039,0.459.07,0.92,0.07,1.389A16,16,0,0,1,337,379Zm8-11a13.977,13.977,0,0,1-13.742-16.65,12.992,12.992,0,1,0,17.983,15.992A13.984,13.984,0,0,1,345,368Zm-29,8a7,7,0,0,0,0,14h23a6,6,0,0,0,6-6,5.9,5.9,0,0,0-1.036-3.335,18.759,18.759,0,0,0,2.7-1.329A8.907,8.907,0,0,1,348,384a9,9,0,0,1-9,9H316a9.994,9.994,0,0,1-.65-19.967,14.085,14.085,0,0,1,3.456-4.57,18.779,18.779,0,0,0,1.2,3,11,11,0,0,0-2.617,4.68A7.059,7.059,0,0,0,316,376Z" transform="translate(-306 -347.031)"/>
</svg>
