<svg xmlns="http://www.w3.org/2000/svg" width="51" height="50" viewBox="0 0 51 50">
  <defs>
    <style>
      .cls-1 {
        fill: #fff;
        fill-rule: evenodd;
      }
    </style>
  </defs>
  <path id="sun_small_cloud" data-name="sun, small cloud" class="cls-1" d="M170,365v-3h7v3h-7Zm-5.015-12.107,4.95-4.949,2.121,2.121-4.949,4.95ZM156.5,374A10.5,10.5,0,1,1,167,363.5,10.5,10.5,0,0,1,156.5,374Zm0-18a7.5,7.5,0,1,0,7.5,7.5A7.5,7.5,0,0,0,156.5,356ZM155,343h3v7h-3v-7Zm-14.056,7.065,2.121-2.121,4.95,4.949-2.122,2.122ZM143,365h-7v-3h7v3Zm2.893,6.985,2.122,2.122-4.95,4.949-2.121-2.121ZM158,377v7h-3v-7h3Zm-18.622-9h4.417c0.086,0.247.159,0.5,0.26,0.74a11.023,11.023,0,0,0-6.666,7.4A7,7,0,1,0,136,390h23a5.986,5.986,0,0,0,2-11.633v-2.176a13.539,13.539,0,0,0,1.316-.522l0.006,0,5.015,5.016A8.835,8.835,0,0,1,168,384a9,9,0,0,1-9,9H136a9.994,9.994,0,0,1-.65-19.967A14.059,14.059,0,0,1,139.378,368Zm27.729,3.985,4.949,4.95-2.121,2.121-4.95-4.949Z" transform="translate(-126 -343)"/>
</svg>
