<svg xmlns="http://www.w3.org/2000/svg" width="53" height="42.969" viewBox="0 0 53 42.969">
  <defs>
    <style>
      .cls-1 {
        fill: #fff;
        fill-rule: evenodd;
      }
    </style>
  </defs>
  <path id="moon_big_cloud" data-name="moon, big cloud" class="cls-1" d="M438.373,380.191a11.943,11.943,0,0,0-1.3-2.7,13.052,13.052,0,0,0,6.171-7.145,13.983,13.983,0,0,1-17.983-15.992,13.036,13.036,0,0,0-6.717,7.942,16.573,16.573,0,0,0-3.017-.291A15.989,15.989,0,0,1,430.5,350.026a10.995,10.995,0,0,0,16.435,14.585c0.039,0.459.07,0.92,0.07,1.389A15.987,15.987,0,0,1,438.373,380.191Zm-8.868-4.83A9,9,0,0,1,427,393H404a9.994,9.994,0,0,1-.65-19.967A13.98,13.98,0,0,1,429.505,375.361Zm-24.116.778A7,7,0,1,0,404,390h23a6,6,0,0,0,0-12c-0.017,0-.033,0-0.05,0A10.991,10.991,0,0,0,405.389,376.139Z" transform="translate(-394 -350.031)"/>
</svg>
