<svg xmlns="http://www.w3.org/2000/svg" width="52" height="47" viewBox="0 0 52 47">
  <defs>
    <style>
      .cls-1 {
        fill: #fff;
        fill-rule: evenodd;
      }
    </style>
  </defs>
  <path id="rain_snow" data-name="rain, snow" class="cls-1" d="M891,562.651v-3.762a6.937,6.937,0,0,0-6.107-11.777A13.5,13.5,0,1,0,858,545.5c0,0.03,0,.059,0,0.089a8,8,0,0,0-9.138,12.544l-2.121,2.121A10.987,10.987,0,0,1,855,542c0.127,0,.25.015,0.375,0.019a16.49,16.49,0,0,1,32.559,2.172A9.992,9.992,0,0,1,891,562.651ZM852,559l2-2,5,5h2v-2l-5-5,2-2,3,4v-6h3v6l3-4,2,2-5,5v2h2l5-5,2,2-4,3h6v3h-6l4,3-2,2-5-5h-2v2l5,5-2,2-3-4v6h-3v-6l-3,4-2-2,5-5v-2h-2l-5,5-2-2,4-3h-6v-3h6Zm29,2h-3v-6h3v6Zm0,9h-3v-6h3v6Zm7-6h-3v-6h3v6Zm0,9h-3v-6h3v6Z" transform="translate(-844 -529)"/>
</svg>
