<svg xmlns="http://www.w3.org/2000/svg" width="52" height="47" viewBox="0 0 52 47">
  <defs>
    <style>
      .cls-1 {
        fill: #fff;
        fill-rule: evenodd;
      }
    </style>
  </defs>
  <path id="shower_snow" data-name="shower, snow" class="cls-1" d="M981.146,562.563L983,557v-2h-0.1a6.858,6.858,0,0,0,.1-1,6.864,6.864,0,0,0-8.105-6.888A13.5,13.5,0,1,0,948,545.5c0,0.03,0,.059,0,0.089a8,8,0,0,0-8.662,13.068l-2.121,2.121A11,11,0,0,1,945,542c0.127,0,.25.015,0.375,0.019a16.49,16.49,0,0,1,32.559,2.172A9.99,9.99,0,0,1,981.146,562.563ZM942,559l2-2,5,5h2v-2l-5-5,2-2,3,4v-6h3v6l3-4,2,2-5,5v2h2l5-5,2,2-4,3h6v3h-6l4,3-2,2-5-5h-2v2l5,5-2,2-3-4v6h-3v-6l-3,4-2-2,5-5v-2h-2l-5,5-2-2,4-3h-6v-3h6Zm32-5-5,15h-3l5-15h3Zm6,3-5,15h-3l5-15h3Z" transform="translate(-934 -529)"/>
</svg>
