<svg xmlns="http://www.w3.org/2000/svg" width="52" height="47" viewBox="0 0 52 47">
  <defs>
    <style>
      .cls-1 {
        fill: #fff;
        fill-rule: evenodd;
      }
    </style>
  </defs>
  <path id="rain_thunder" data-name="rain, thunder" class="cls-1" d="M528,473.8v-3.124a6.965,6.965,0,0,0-3.122-13.562A13.488,13.488,0,1,0,498,455.5c0,0.03,0,.059,0,0.089a7.993,7.993,0,0,0-9.955,11.362l-2.181,2.181A11,11,0,0,1,495,452c0.127,0,.25.015,0.375,0.019a16.49,16.49,0,0,1,32.559,2.172A10,10,0,0,1,528,473.8ZM505,466h7l-16,20V471h-7l16-19v14Zm-3-6-7,8h4v10l7-9h-4v-9Zm9,23h-3v-6h3v6Zm7-12h-3v-6h3v6Zm0,9h-3v-6h3v6Zm7-6h-3v-6h3v6Zm0,9h-3v-6h3v6Z" transform="translate(-484 -439)"/>
</svg>
