<svg xmlns="http://www.w3.org/2000/svg" width="44" height="45" viewBox="0 0 44 45">
  <defs>
    <style>
      .cls-1 {
        fill: #fff;
        fill-rule: evenodd;
      }
    </style>
  </defs>
  <path id="storm_warning" data-name="storm, warning" class="cls-1" d="M164.5,846A11.5,11.5,0,1,1,176,834.5,11.5,11.5,0,0,1,164.5,846Zm0-20a8.5,8.5,0,1,0,8.5,8.5A8.5,8.5,0,0,0,164.5,826ZM163,837h3v3h-3v-3Zm0-8h3v7h-3v-7Zm3-18H144a2.938,2.938,0,0,1-3-3h28A2.938,2.938,0,0,1,166,811Zm-3-7H135a2.938,2.938,0,0,1-3-3h34A2.938,2.938,0,0,1,163,804Zm-24,11h26a2.938,2.938,0,0,1-3,3H142A2.938,2.938,0,0,1,139,815Zm14,10H139a2.938,2.938,0,0,1-3-3h20A2.938,2.938,0,0,1,153,825Zm-5,7h-5a2.938,2.938,0,0,1-3-3h11A2.938,2.938,0,0,1,148,832Zm0,7a2.938,2.938,0,0,1-3-3h6A2.938,2.938,0,0,1,148,839Z" transform="translate(-132 -801)"/>
</svg>
